<?xml version="1.0" encoding="utf-8"?>
<!-- Generator: Adobe Illustrator 25.0.0, SVG Export Plug-In . SVG Version: 6.00 Build 0)  -->
<svg version="1.1" id="Calque_1" xmlns="http://www.w3.org/2000/svg" xmlns:xlink="http://www.w3.org/1999/xlink" x="0px" y="0px"
	 viewBox="0 0 540.7 512" style="enable-background:new 0 0 540.7 512;" xml:space="preserve">
<style type="text/css">
	.st0{fill:none;stroke:#EAE1C9;stroke-width:15;stroke-miterlimit:10;}
</style>
<g id="Calque_3">
	<path class="st0" d="M407.3,220.2C398,202.8,380,192,360.2,192H176.8c-19.7,0-37.8,10.8-47.1,28.2l-68.3,128
		c-4.1,7.7-6.3,16.4-6.3,25.1V448c0,23.5,19.1,42.7,42.7,42.7h341.3c23.5,0,42.7-19.1,42.7-42.7v-74.7c0-8.7-2.2-17.4-6.3-25.1
		L407.3,220.2z M204.5,426.7c-11.8,0-21.3-9.6-21.3-21.3s9.6-21.3,21.3-21.3c11.8,0,21.3,9.6,21.3,21.3S216.2,426.7,204.5,426.7z
		 M204.5,362.7c-11.8,0-21.3-9.6-21.3-21.3s9.6-21.3,21.3-21.3c11.8,0,21.3,9.6,21.3,21.3S216.2,362.7,204.5,362.7z M204.5,298.7
		c-11.8,0-21.3-9.6-21.3-21.3s9.6-21.3,21.3-21.3c11.8,0,21.3,9.6,21.3,21.3S216.2,298.7,204.5,298.7z M268.5,426.7
		c-11.8,0-21.3-9.6-21.3-21.3s9.6-21.3,21.3-21.3s21.3,9.6,21.3,21.3S280.3,426.7,268.5,426.7z M268.5,362.7
		c-11.8,0-21.3-9.6-21.3-21.3s9.6-21.3,21.3-21.3s21.3,9.6,21.3,21.3S280.3,362.7,268.5,362.7z M268.5,298.7
		c-11.8,0-21.3-9.6-21.3-21.3s9.6-21.3,21.3-21.3s21.3,9.6,21.3,21.3S280.3,298.7,268.5,298.7z M332.5,426.7
		c-11.8,0-21.3-9.6-21.3-21.3s9.6-21.3,21.3-21.3c11.8,0,21.3,9.6,21.3,21.3S344.2,426.7,332.5,426.7z M332.5,362.7
		c-11.8,0-21.3-9.6-21.3-21.3s9.6-21.3,21.3-21.3c11.8,0,21.3,9.6,21.3,21.3S344.2,362.7,332.5,362.7z M332.5,298.7
		c-11.8,0-21.3-9.6-21.3-21.3s9.6-21.3,21.3-21.3c11.8,0,21.3,9.6,21.3,21.3S344.2,298.7,332.5,298.7z"/>
</g>
<g id="Calque_2_1_">
	<path class="st0" d="M515.8,114.9C449.7,45.5,361.9,7.3,268.5,7.3S87.2,45.5,21.2,114.9c-11.6,12.2-11.6,32.1,0,44.3L70.4,211
		c11.6,12.1,32,12.1,43.6,0c16.5-17.3,35.2-31.6,55.5-42.3c10.2-5.3,16.8-16.3,16.7-26.8l7.4-56.1c54.4-17.4,95.8-17.4,149.7,0
		l7.3,54.7c0,11.8,6.3,22.6,16.5,28.2c20.4,10.8,39.1,25.1,55.6,42.4c5.8,6.1,13.5,9.4,21.8,9.4s16-3.3,21.8-9.4l49.3-51.9
		C527.4,147.1,527.4,127.2,515.8,114.9z"/>
</g>
</svg>
